<?xml version="1.0" encoding="UTF-8"?>
<svg xmlns="http://www.w3.org/2000/svg" xmlns:xlink="http://www.w3.org/1999/xlink" width="396" height="684" viewBox="-81 0 396 684">
<rect x="-81" y="0" width="396" height="684" fill="white"/>
<defs>
<marker id="arrow_end_2_5E5E5E" markerWidth="10.0" markerHeight="7.0" refX="10.0" refY="3.5" orient="auto" markerUnits="userSpaceOnUse"><polygon points="0 0, 10.0 3.5, 0 7.0" fill="#5E5E5E"/></marker>
</defs>
<g transform="translate(54.00,45.00)">
<path d="M 0.00 2.70 L 2.70 0.00 L 2.70 0.00 L 69.30 0.00 L 72.00 2.70 L 72.00 2.70 L 72.00 51.30 L 69.30 54.00 L 69.30 54.00 L 2.70 54.00 L 0.00 51.30 L 0.00 51.30 L 0.00 2.70 Z" fill="#FFFFFF" stroke="#5e5e5e" stroke-width="1.35" transform="translate(0.00,0.00)"/>
</g>
<g transform="translate(261.00,45.00)">
<path d="M 0.00 2.70 L 2.70 0.00 L 2.70 0.00 L 69.30 0.00 L 72.00 2.70 L 72.00 2.70 L 72.00 51.30 L 69.30 54.00 L 69.30 54.00 L 2.70 54.00 L 0.00 51.30 L 0.00 51.30 L 0.00 2.70 Z" fill="#FFFFFF" stroke="#5e5e5e" stroke-width="1.35" transform="translate(0.00,0.00)"/>
</g>
<path d="M 126.68 72.00 L 260.33 72.00" fill="none" stroke="#5E5E5E" stroke-width="1.50" marker-end="url(#arrow_end_2_5E5E5E)"/>
<path d="M 260.32 80.42 L 126.68 80.42" fill="none" stroke="#5E5E5E" stroke-width="1.50" marker-end="url(#arrow_end_2_5E5E5E)"/>
<path d="M 126.68 90.00 L 260.33 90.00" fill="none" stroke="#5E5E5E" stroke-width="1.50" marker-end="url(#arrow_end_2_5E5E5E)"/>
<!-- Text layer -->
<text x="90.00" y="72.00" text-anchor="middle" dominant-baseline="central" font-family="Arial, Noto Sans, sans-serif" font-size="10.0" fill="#333333">Shape A</text>
<rect x="187.00" y="57.80" width="30.40" height="9.60" fill="white" fill-opacity="0.55" rx="1"/>
<text x="202.20" y="62.60" text-anchor="middle" dominant-baseline="central" font-family="Arial, Noto Sans, sans-serif" font-size="8.0" fill="#333333" font-weight="bold">Line 1</text>
<rect x="169.00" y="66.20" width="30.40" height="9.60" fill="white" fill-opacity="0.55" rx="1"/>
<text x="184.20" y="71.00" text-anchor="middle" dominant-baseline="central" font-family="Arial, Noto Sans, sans-serif" font-size="8.0" fill="#333333" font-weight="bold">Line 2</text>
<rect x="168.41" y="75.80" width="30.40" height="9.60" fill="white" fill-opacity="0.55" rx="1"/>
<text x="183.61" y="80.60" text-anchor="middle" dominant-baseline="central" font-family="Arial, Noto Sans, sans-serif" font-size="8.0" fill="#333333" font-weight="bold">Line 3</text>
</svg>