<?xml version="1.0" encoding="UTF-8"?>
<svg xmlns="http://www.w3.org/2000/svg" 
xmlns:xlink="http://www.w3.org/1999/xlink" 
width="612" height="792" 
viewBox="-32 -82 612 792">
<rect x="-32" y="-82" width="612" height="792" fill="white"/>
<defs>
<filter id="shadow" x="-5%" y="-5%" width="115%" height="115%">
<feDropShadow dx="2" dy="2" stdDeviation="2" flood-color="rgba(0,0,0,0.2)"/>
</filter>
<marker id="arrow_end_2_333333" markerWidth="10.0" markerHeight="7.0" refX="10.0" refY="3.5" orient="auto" markerUnits="userSpaceOnUse"><polygon points="0 0, 10.0 3.5, 0 7.0" fill="#333333"/></marker>
</defs>
<path d="M 0.00 113.39 L 155.91 113.39 L 155.91 0.00 L 0.00 0.00 L 0.00 113.39 Z" fill="none" stroke="#333333" stroke-width="0.72"  filter="url(#shadow)" transform="translate(18.00,-31.89)"/>
<path d="M 0.00 113.39 L 155.91 113.39 L 155.91 0.00 L 0.00 0.00 L 0.00 113.39 Z" fill="none" stroke="#333333" stroke-width="0.72"  filter="url(#shadow)" transform="translate(330.24,140.03)"/>
<path d="M 0.00 0.00 L 156.33 172.16" fill="none" stroke="#333333" stroke-width="1.50" marker-end="url(#arrow_end_2_333333)" transform="translate(173.91,-18.35)"/>
<path d="M 0.00 115.23" fill="none" stroke="#333333" stroke-width="1.50" marker-end="url(#arrow_end_2_333333)" transform="translate(95.95,-33.73)"/>
<path d="M 0.00 42.52 A 41.10 42.52 0 1 0 82.20 42.52 A 41.10 42.52 0 1 0 0.00 42.52 Z" fill="none" stroke="#333333" stroke-width="0.72"  filter="url(#shadow)" transform="translate(277.80,-15.87)"/>
<path d="M 0.00 0.00 L 85.04 0.00" fill="none" stroke="#333333" stroke-width="1.50" transform="translate(396.85,-1.70)"/>
<!-- Text layer -->
<text x="95.95" y="24.80" text-anchor="middle" dominant-baseline="central" font-family="Noto Sans, sans-serif" font-size="8.0" fill="#333333">RECTANGLE</text>
<text x="408.19" y="196.72" text-anchor="middle" dominant-baseline="central" font-family="Noto Sans, sans-serif" font-size="8.0" fill="#333333">CONNECTED_SHAPE</text>
<text x="318.90" y="26.65" text-anchor="middle" dominant-baseline="central" font-family="Noto Sans, sans-serif" font-size="8.0" fill="#333333">CIRCLE</text>
</svg>