<?xml version="1.0" encoding="UTF-8"?>
<svg xmlns="http://www.w3.org/2000/svg" 
xmlns:xlink="http://www.w3.org/1999/xlink" 
width="659" height="792" 
viewBox="-32 -82 659 792">
<rect x="-32" y="-82" width="659" height="792" fill="white"/>
<defs>
<filter id="shadow" x="-5%" y="-5%" width="115%" height="115%">
<feDropShadow dx="2" dy="2" stdDeviation="2" flood-color="rgba(0,0,0,0.2)"/>
</filter>
<linearGradient id="grad_9_auto" x1="0.0%" y1="50.0%" x2="100.0%" y2="50.0%"><stop offset="0%" stop-color="#74aadb"/><stop offset="100%" stop-color="#5B9BD5"/></linearGradient>
<linearGradient id="grad_13_auto" x1="0.0%" y1="50.0%" x2="100.0%" y2="50.0%"><stop offset="0%" stop-color="#74aadb"/><stop offset="100%" stop-color="#5B9BD5"/></linearGradient>
</defs>
<path d="M 0.00 113.39 L 155.91 113.39 L 155.91 0.00 L 0.00 0.00 L 0.00 113.39 Z" fill="none" stroke="#333333" stroke-width="0.72"  filter="url(#shadow)" transform="translate(18.00,-31.89)"/>
<path d="M 0.00 113.39 L 155.91 113.39 L 155.91 0.00 L 0.00 0.00 L 0.00 113.39 Z" fill="none" stroke="#333333" stroke-width="0.72"  filter="url(#shadow)" transform="translate(421.37,-31.89)"/>
<g transform="translate(363.16,113.93)">
<path d="M 53.22 20.98 L 26.79 0.00 L 0.02 21.10 L 0.00 57.86 L 53.22 57.86 L 53.22 20.98 Z" fill="none" stroke="#333333" stroke-width="0.72" filter="url(#shadow)"/>
<path d="M 53.22 20.98 L 26.79 0.00 L 0.02 21.10 L 0.00 57.86 L 53.22 57.86 L 53.22 20.98 Z" fill="none" stroke="#333333" stroke-width="0.72"  filter="url(#shadow)" transform="translate(8.84,-2.33)"/>
<path d="M 0.00 30.55 L 11.11 30.55 L 11.11 9.37 L 0.00 9.37 L 0.00 30.55 Z" fill="url(#grad_9_auto)" stroke="none" stroke-width="0.72"  filter="url(#shadow)" transform="translate(18.28,22.89)"/>
<path d="M 29.71 13.66 L 35.64 13.66 L 35.64 7.72 L 29.71 7.72 L 29.71 13.66 Z" fill="url(#grad_9_auto)" stroke="none" stroke-width="0.72"  filter="url(#shadow)" transform="translate(18.28,22.89)"/>
<path d="M 22.18 13.66 L 28.12 13.66 L 28.12 7.72 L 22.18 7.72 L 22.18 13.66 Z" fill="url(#grad_9_auto)" stroke="none" stroke-width="0.72"  filter="url(#shadow)" transform="translate(18.28,22.89)"/>
<path d="M 22.18 5.94 L 28.12 5.94 L 28.12 0.00 L 22.18 0.00 L 22.18 5.94 Z" fill="url(#grad_9_auto)" stroke="none" stroke-width="0.72"  filter="url(#shadow)" transform="translate(18.28,22.89)"/>
<path d="M 29.71 5.94 L 35.64 5.94 L 35.64 0.00 L 29.71 0.00 L 29.71 5.94 Z" fill="url(#grad_9_auto)" stroke="none" stroke-width="0.72"  filter="url(#shadow)" transform="translate(18.28,22.89)"/>
<path d="M 62.05 29.32 L 70.87 29.35 L 35.45 0.00 L 18.15 14.34 L 18.15 7.94 L 9.67 7.94 L 9.67 21.38 L 0.00 29.40 L 8.86 29.44 L 35.62 8.34 L 62.05 29.32 Z" fill="none" stroke="#333333" stroke-width="0.72"  filter="url(#shadow)" transform="translate(0.00,-10.67)"/>
</g>
<g transform="translate(271.03,-4.13)">
<path d="M 53.22 20.98 L 26.79 0.00 L 0.02 21.10 L 0.00 57.86 L 53.22 57.86 L 53.22 20.98 Z" fill="none" stroke="#333333" stroke-width="0.72" filter="url(#shadow)"/>
<path d="M 53.22 20.98 L 26.79 0.00 L 0.02 21.10 L 0.00 57.86 L 53.22 57.86 L 53.22 20.98 Z" fill="none" stroke="#333333" stroke-width="0.72"  filter="url(#shadow)" transform="translate(8.84,-2.33)"/>
<path d="M 0.00 30.55 L 11.11 30.55 L 11.11 9.37 L 0.00 9.37 L 0.00 30.55 Z" fill="url(#grad_13_auto)" stroke="none" stroke-width="0.72"  filter="url(#shadow)" transform="translate(18.28,22.89)"/>
<path d="M 29.71 13.66 L 35.64 13.66 L 35.64 7.72 L 29.71 7.72 L 29.71 13.66 Z" fill="url(#grad_13_auto)" stroke="none" stroke-width="0.72"  filter="url(#shadow)" transform="translate(18.28,22.89)"/>
<path d="M 22.18 13.66 L 28.12 13.66 L 28.12 7.72 L 22.18 7.72 L 22.18 13.66 Z" fill="url(#grad_13_auto)" stroke="none" stroke-width="0.72"  filter="url(#shadow)" transform="translate(18.28,22.89)"/>
<path d="M 22.18 5.94 L 28.12 5.94 L 28.12 0.00 L 22.18 0.00 L 22.18 5.94 Z" fill="url(#grad_13_auto)" stroke="none" stroke-width="0.72"  filter="url(#shadow)" transform="translate(18.28,22.89)"/>
<path d="M 29.71 5.94 L 35.64 5.94 L 35.64 0.00 L 29.71 0.00 L 29.71 5.94 Z" fill="url(#grad_13_auto)" stroke="none" stroke-width="0.72"  filter="url(#shadow)" transform="translate(18.28,22.89)"/>
<path d="M 62.05 29.32 L 70.87 29.35 L 35.45 0.00 L 18.15 14.34 L 18.15 7.94 L 9.67 7.94 L 9.67 21.38 L 0.00 29.40 L 8.86 29.44 L 35.62 8.34 L 62.05 29.32 Z" fill="none" stroke="#333333" stroke-width="0.72"  filter="url(#shadow)" transform="translate(0.00,-10.67)"/>
</g>
<!-- Text layer -->
<text x="95.95" y="24.80" text-anchor="middle" dominant-baseline="central" font-family="Noto Sans, sans-serif" font-size="8.0" fill="#333333">Shape Text</text>
<text x="499.32" y="24.80" text-anchor="middle" dominant-baseline="central" font-family="Noto Sans, sans-serif" font-size="8.0" fill="#333333">Shape to copy</text>
<text x="389.76" y="142.87" text-anchor="middle" dominant-baseline="central" font-family="Noto Sans, sans-serif" font-size="12.0" fill="#333333">Shape for context filter: The scenario is {{scenario}} and this file was created on {{date}}</text>
<text x="297.64" y="24.80" text-anchor="middle" dominant-baseline="central" font-family="Noto Sans, sans-serif" font-size="8.0" fill="#333333">Shape to remove</text>
</svg>