<?xml version="1.0" encoding="UTF-8"?>
<svg xmlns="http://www.w3.org/2000/svg" 
xmlns:xlink="http://www.w3.org/1999/xlink" 
width="659" height="792" 
viewBox="-32 -82 659 792">
<rect x="-32" y="-82" width="659" height="792" fill="white"/>
<defs>
<filter id="shadow" x="-5%" y="-5%" width="115%" height="115%">
<feDropShadow dx="2" dy="2" stdDeviation="2" flood-color="rgba(0,0,0,0.2)"/>
</filter>
</defs>
<path d="M 0.00 113.39 L 155.91 113.39 L 155.91 0.00 L 0.00 0.00 L 0.00 113.39 Z" fill="none" stroke="#333333" stroke-width="0.72"  filter="url(#shadow)" transform="translate(18.00,-31.89) rotate(-30.00,77.95,56.69)"/>
<path d="M 0.00 113.39 L 155.91 113.39 L 155.91 0.00 L 0.00 0.00 L 0.00 113.39 Z" fill="none" stroke="#333333" stroke-width="0.72"  filter="url(#shadow)" transform="translate(219.69,-31.89) rotate(80.00,77.95,56.69)"/>
<path d="M 0.00 113.39 L 155.91 113.39 L 155.91 0.00 L 0.00 0.00 L 0.00 113.39 Z" fill="none" stroke="#333333" stroke-width="0.72"  filter="url(#shadow)" transform="translate(421.37,-31.89) rotate(-145.00,77.95,56.69)"/>
<path d="M 0.00 79.37 L 299.06 79.37 L 299.06 0.00 L 0.00 0.00 L 0.00 79.37 Z" fill="none" stroke="#333333" stroke-width="0.72"  filter="url(#shadow)" transform="translate(18.43,103.18) rotate(15.00,149.53,39.69)"/>
<!-- Text layer -->
<text x="95.95" y="24.80" text-anchor="middle" dominant-baseline="central" font-family="Noto Sans, sans-serif" font-size="8.0" fill="#333333">Shape Text</text>
<text x="297.64" y="24.80" text-anchor="middle" dominant-baseline="central" font-family="Noto Sans, sans-serif" font-size="8.0" fill="#333333">Shape to remove</text>
<text x="499.32" y="24.80" text-anchor="middle" dominant-baseline="central" font-family="Noto Sans, sans-serif" font-size="8.0" fill="#333333">Shape to copy</text>
<text x="167.95" y="142.87" text-anchor="middle" dominant-baseline="central" font-family="Noto Sans, sans-serif" font-size="8.0" fill="#333333">Shape for context filter: The scenario is {{scenario}} and this file was created on {{date}}</text>
</svg>